<svg width="496" height="523" viewBox="0 0 496 523" fill="none" xmlns="http://www.w3.org/2000/svg">
<g filter="url(#filter0_i_10_2)">
<path d="M461 305.5C461 359.737 439.455 411.752 401.103 450.103C362.752 488.455 310.737 510 256.5 510C202.263 510 150.248 488.455 111.897 450.103C73.5455 411.752 52 359.737 52 305.5L256.5 305.5H461Z" fill="#FBFBFB"/>
</g>
<path d="M104 337C104 350.791 98.5214 364.018 88.7696 373.77C79.0177 383.521 65.7913 389 52 389C38.2087 389 24.9823 383.521 15.2305 373.77C5.47856 364.018 2.08242e-06 350.791 0 337L52 337H104Z" fill="#FF73B4"/>
<path d="M390.312 441.623C390.229 427.832 395.628 414.573 405.322 404.763C415.015 394.953 428.208 389.395 441.999 389.312C455.79 389.229 469.049 394.628 478.859 404.322C488.67 414.015 494.227 427.208 494.31 440.999L442.311 441.311L390.312 441.623Z" fill="#5754C5"/>
<path d="M372.088 294.021H139.621C135.48 294.016 131.509 292.385 128.58 289.485C125.652 286.585 124.005 282.653 124 278.551V15.4694C124.005 11.3681 125.652 7.4361 128.58 4.53603C131.509 1.63595 135.48 0.00465221 139.621 0H372.088C376.229 0.00463367 380.2 1.63593 383.128 4.536C386.057 7.43608 387.704 11.3681 387.709 15.4694V278.551C387.704 282.653 386.057 286.585 383.128 289.485C380.2 292.385 376.229 294.016 372.088 294.021Z" fill="#E6E6E6"/>
<path d="M361.225 281.128H150.484C146.806 281.124 143.281 279.675 140.681 277.1C138.081 274.525 136.618 271.034 136.614 267.393V26.6281C136.618 22.9866 138.081 19.4954 140.681 16.9204C143.281 14.3455 146.806 12.8971 150.484 12.8929H361.225C364.902 12.8971 368.428 14.3455 371.028 16.9204C373.628 19.4954 375.091 22.9866 375.095 26.6281V267.393C375.091 271.034 373.628 274.525 371.028 277.1C368.428 279.675 364.902 281.124 361.225 281.128Z" fill="white"/>
<path d="M352.841 47.1604H246.528C246.073 47.161 245.621 47.0727 245.2 46.9004C244.779 46.7282 244.396 46.4754 244.073 46.1565C243.751 45.8376 243.495 45.4588 243.321 45.0419C243.146 44.6251 243.056 44.1782 243.056 43.7269C243.056 43.2756 243.146 42.8287 243.321 42.4118C243.495 41.9949 243.751 41.6162 244.073 41.2973C244.396 40.9784 244.779 40.7256 245.2 40.5533C245.621 40.381 246.073 40.2927 246.528 40.2933H352.841C353.297 40.2927 353.748 40.381 354.17 40.5533C354.591 40.7256 354.974 40.9784 355.296 41.2973C355.619 41.6162 355.874 41.9949 356.049 42.4118C356.223 42.8287 356.313 43.2756 356.313 43.7269C356.313 44.1782 356.223 44.6251 356.049 45.0419C355.874 45.4588 355.619 45.8376 355.296 46.1565C354.974 46.4754 354.591 46.7282 354.17 46.9004C353.748 47.0727 353.297 47.161 352.841 47.1604Z" fill="#E4E4E4"/>
<path d="M352.841 60.728H246.528C245.609 60.728 244.727 60.3662 244.076 59.7223C243.426 59.0783 243.061 58.205 243.061 57.2943C243.061 56.3836 243.426 55.5103 244.076 54.8663C244.727 54.2224 245.609 53.8606 246.528 53.8606H352.841C353.761 53.8606 354.643 54.2224 355.293 54.8663C355.943 55.5103 356.309 56.3836 356.309 57.2943C356.309 58.205 355.943 59.0783 355.293 59.7223C354.643 60.3662 353.761 60.728 352.841 60.728Z" fill="#E4E4E4"/>
<path d="M292.612 74.2956H246.528C245.609 74.2956 244.727 73.9338 244.076 73.2899C243.426 72.646 243.061 71.7726 243.061 70.8619C243.061 69.9512 243.426 69.0779 244.076 68.4339C244.727 67.79 245.609 67.4282 246.528 67.4282H292.612C293.532 67.4282 294.414 67.79 295.064 68.4339C295.714 69.0779 296.08 69.9512 296.08 70.8619C296.08 71.7726 295.714 72.646 295.064 73.2899C294.414 73.9338 293.532 74.2956 292.612 74.2956Z" fill="#E4E4E4"/>
<path d="M340.021 129.093H172.186C171.73 129.094 171.279 129.005 170.858 128.833C170.436 128.661 170.054 128.408 169.731 128.089C169.409 127.77 169.153 127.392 168.978 126.975C168.804 126.558 168.714 126.111 168.714 125.66C168.714 125.208 168.804 124.761 168.978 124.345C169.153 123.928 169.409 123.549 169.731 123.23C170.054 122.911 170.436 122.658 170.858 122.486C171.279 122.314 171.73 122.225 172.186 122.226H340.021C340.477 122.225 340.928 122.314 341.349 122.486C341.771 122.658 342.153 122.911 342.476 123.23C342.798 123.549 343.054 123.928 343.229 124.345C343.403 124.761 343.493 125.208 343.493 125.66C343.493 126.111 343.403 126.558 343.229 126.975C343.054 127.392 342.798 127.77 342.476 128.089C342.153 128.408 341.771 128.661 341.349 128.833C340.928 129.005 340.477 129.094 340.021 129.093Z" fill="#E4E4E4"/>
<path d="M340.021 142.661H172.186C171.267 142.661 170.385 142.299 169.734 141.655C169.084 141.011 168.719 140.138 168.719 139.227C168.719 138.316 169.084 137.443 169.734 136.799C170.385 136.155 171.267 135.793 172.186 135.793H340.021C340.941 135.793 341.823 136.155 342.473 136.799C343.123 137.443 343.488 138.316 343.488 139.227C343.488 140.138 343.123 141.011 342.473 141.655C341.823 142.299 340.941 142.661 340.021 142.661Z" fill="#E4E4E4"/>
<path d="M340.021 173.459H172.186C171.266 173.459 170.384 173.097 169.734 172.453C169.084 171.809 168.719 170.936 168.719 170.025C168.719 169.114 169.084 168.241 169.734 167.597C170.384 166.953 171.266 166.591 172.186 166.591H340.021C340.94 166.591 341.822 166.953 342.473 167.597C343.123 168.241 343.488 169.114 343.488 170.025C343.488 170.936 343.123 171.809 342.473 172.453C341.822 173.097 340.94 173.459 340.021 173.459Z" fill="#E4E4E4"/>
<path d="M340.021 187.026H172.186C171.267 187.026 170.385 186.664 169.734 186.02C169.084 185.376 168.719 184.503 168.719 183.592C168.719 182.682 169.084 181.808 169.734 181.164C170.385 180.521 171.267 180.159 172.186 180.159H340.021C340.941 180.159 341.823 180.521 342.473 181.164C343.123 181.808 343.488 182.682 343.488 183.592C343.488 184.503 343.123 185.376 342.473 186.02C341.823 186.664 340.941 187.026 340.021 187.026Z" fill="#E4E4E4"/>
<path d="M340.021 217.824H172.186C171.266 217.824 170.384 217.462 169.734 216.818C169.084 216.174 168.719 215.301 168.719 214.39C168.719 213.48 169.084 212.606 169.734 211.963C170.384 211.319 171.266 210.957 172.186 210.957H340.021C340.94 210.957 341.822 211.319 342.473 211.963C343.123 212.606 343.488 213.48 343.488 214.39C343.488 215.301 343.123 216.174 342.473 216.818C341.822 217.462 340.94 217.824 340.021 217.824Z" fill="#E4E4E4"/>
<path d="M340.021 231.392H172.186C171.267 231.392 170.385 231.03 169.734 230.386C169.084 229.742 168.719 228.869 168.719 227.958C168.719 227.047 169.084 226.174 169.734 225.53C170.385 224.886 171.267 224.524 172.186 224.524H340.021C340.941 224.524 341.823 224.886 342.473 225.53C343.123 226.174 343.488 227.047 343.488 227.958C343.488 228.869 343.123 229.742 342.473 230.386C341.823 231.03 340.941 231.392 340.021 231.392Z" fill="#E4E4E4"/>
<path d="M339.991 268.973H293.907C292.988 268.973 292.106 268.612 291.456 267.968C290.805 267.324 290.44 266.45 290.44 265.54C290.44 264.629 290.805 263.756 291.456 263.112C292.106 262.468 292.988 262.106 293.907 262.106H339.991C340.911 262.106 341.793 262.468 342.443 263.112C343.093 263.756 343.459 264.629 343.459 265.54C343.459 266.45 343.093 267.324 342.443 267.968C341.793 268.612 340.911 268.973 339.991 268.973Z" fill="black"/>
<path d="M217.099 57.6964C217.109 65.0703 214.588 72.2286 209.95 77.9975C208.45 79.8752 206.742 81.5805 204.858 83.0816C199.718 87.211 193.437 89.7057 186.84 90.2384C185.942 90.3155 185.037 90.3505 184.124 90.3505C182.317 90.3509 180.512 90.2033 178.729 89.9093C178.1 89.8113 177.485 89.6922 176.869 89.5522C175.798 89.3162 174.741 89.024 173.701 88.6768C170.33 87.5656 167.163 85.9196 164.324 83.8029C163.568 83.2427 162.839 82.6474 162.132 82.0172C161.267 81.2575 160.448 80.4485 159.678 79.5942C159.473 79.3701 159.268 79.139 159.07 78.908C155.62 74.9087 153.196 70.1431 152.006 65.0167C150.816 59.8903 150.894 54.5549 152.235 49.465C153.575 44.375 156.137 39.6812 159.704 35.783C163.27 31.8849 167.735 28.8979 172.718 27.0764C177.701 25.2549 183.055 24.6528 188.324 25.3214C193.592 25.99 198.62 27.9095 202.978 30.9165C207.336 33.9234 210.897 37.9288 213.355 42.5915C215.814 47.2543 217.098 52.4363 217.099 57.6964Z" fill="#E4E4E4"/>
<path d="M182.977 68.8405C190.44 68.8405 196.49 62.8494 196.49 55.4589C196.49 48.0685 190.44 42.0773 182.977 42.0773C175.514 42.0773 169.464 48.0685 169.464 55.4589C169.464 62.8494 175.514 68.8405 182.977 68.8405Z" fill="#9E616A"/>
<path d="M198.02 48.9359C198.081 47.7402 197.741 46.5581 197.051 45.5746L196.563 44.8883C194.802 41.527 191.896 38.5018 189.768 36.2889C188.169 34.6292 186.571 33.8309 185.037 33.9079C183.92 33.9869 182.88 34.5005 182.144 35.3365C180.123 35.2143 178.11 35.6785 176.352 36.6724C174.593 37.6662 173.166 39.1464 172.244 40.9317C165.774 44.314 167.704 54.3001 167.725 54.4051L169.289 57.0031L169.465 56.674C169.465 56.667 169.486 56.639 169.515 56.583C169.819 56.0438 171.474 53.0466 172.591 51.1488C172.999 50.5015 173.541 49.9477 174.182 49.5242C175.229 48.816 176.431 48.367 177.689 48.2146L181.126 47.7735L179.825 49.7062H189.188L192.787 49.2861C193.148 50.7497 196.005 56.4289 196.351 57.1152L196.379 57.1712L196.57 57.5564L197.638 54.6502C198.262 52.8101 198.393 50.8414 198.02 48.9359Z" fill="#2F2E41"/>
<path d="M164.423 83.8729C165.003 83.1166 168.008 79.5872 174.924 77.7174L178.587 73.6768L193.275 71.3589L200.75 75.4485L209.95 77.9975C208.45 79.8753 206.742 81.5806 204.858 83.0816C199.718 87.211 193.437 89.7057 186.84 90.2384C185.942 90.3155 185.037 90.3505 184.124 90.3505C182.317 90.3509 180.512 90.2033 178.729 89.9093C178.1 89.8113 177.484 89.6922 176.869 89.5522C175.798 89.3162 174.741 89.024 173.701 88.6768C170.368 87.5801 167.235 85.9579 164.423 83.8729C164.388 83.8519 164.36 83.8239 164.324 83.8029L164.423 83.8729Z" fill="#803795"/>
<path d="M260.328 486.899C268.898 492.587 278.663 521.339 278.663 521.339C278.663 521.339 248.096 523.312 239.528 517.627C237.489 516.275 235.74 514.539 234.379 512.517C233.019 510.495 232.073 508.228 231.598 505.844C231.122 503.461 231.126 501.008 231.607 498.626C232.089 496.243 233.041 493.978 234.407 491.96C235.773 489.942 237.527 488.21 239.569 486.863C241.611 485.517 243.901 484.582 246.308 484.112C248.715 483.642 251.193 483.646 253.598 484.124C256.004 484.602 258.29 485.545 260.328 486.899Z" fill="#F1F1F1"/>
<path d="M279.011 521.122L278.532 521.5C261.064 499.8 234.706 492.305 234.442 492.232L234.606 491.648C234.872 491.721 261.416 499.265 279.011 521.122Z" fill="white"/>
<path d="M306.162 475.428C305.616 489.558 278.492 521.824 278.492 521.824C278.492 521.824 253.954 487.588 254.499 473.464C254.762 466.679 257.736 460.276 262.766 455.663C267.797 451.05 274.472 448.605 281.323 448.865C288.174 449.126 294.639 452.071 299.298 457.052C303.956 462.034 306.425 468.644 306.162 475.428Z" fill="#F1F1F1"/>
<path d="M279.002 522.073L278.205 521.789C291.346 485.654 281.13 449.454 281.025 449.093L281.84 448.861C281.945 449.225 292.239 485.675 279.002 522.073Z" fill="white"/>
<path d="M371.604 373.311C371.005 372.665 370.556 371.897 370.289 371.061C370.022 370.225 369.943 369.341 370.058 368.471C370.173 367.602 370.479 366.768 370.955 366.028C371.431 365.288 372.065 364.661 372.812 364.19L367.848 343.447L378.355 347.249L381.458 366.364C382.174 367.659 382.385 369.17 382.051 370.609C381.717 372.048 380.862 373.315 379.647 374.172C378.432 375.028 376.943 375.413 375.46 375.255C373.978 375.096 372.606 374.404 371.604 373.311Z" fill="#9E616A"/>
<path d="M346.337 286.387L350.554 297.125C350.554 297.125 348.747 307.862 351.759 310.249C354.771 312.635 353.566 312.635 353.566 314.425C353.669 315.708 354.045 316.956 354.668 318.087C355.29 319.217 356.146 320.205 357.18 320.987C359.59 322.776 370.433 359.166 370.433 359.166H381.276C380.926 356.393 380.926 353.587 381.276 350.814C381.879 346.638 379.469 335.9 378.264 334.111C377.059 332.321 378.264 329.935 378.264 326.356C378.264 322.776 375.855 320.987 375.855 315.021C375.855 309.056 368.626 262.525 369.228 257.156C369.831 251.787 363.204 247.014 363.204 247.014H357.18L346.337 286.387Z" fill="#E4E4E4"/>
<path d="M374.067 513.262H366.054L362.242 482.652L374.069 482.652L374.067 513.262Z" fill="#9E616A"/>
<path d="M376.111 520.955L350.271 520.954V520.63C350.272 517.989 351.331 515.456 353.217 513.588C355.104 511.72 357.662 510.671 360.329 510.671L365.05 507.125L373.856 510.671L376.112 510.671L376.111 520.955Z" fill="#2F2E41"/>
<path d="M300.756 513.035L293.231 510.308L300.269 480.264L311.377 484.289L300.756 513.035Z" fill="#9E616A"/>
<path d="M300.007 520.955L275.74 512.163L275.852 511.859C276.769 509.379 278.643 507.36 281.062 506.248C283.482 505.135 286.248 505.02 288.753 505.927L294.417 504.203L301.457 510.53L303.575 511.297L300.007 520.955Z" fill="#2F2E41"/>
<path d="M356.412 370.125C356.412 370.125 350.99 396.373 360.026 393.987C369.062 391.6 365.448 368.931 365.448 368.931L356.412 370.125Z" fill="#A0616A"/>
<path d="M316.653 348.351C316.653 348.351 309.424 357.895 309.424 363.264C309.424 368.633 307.015 416.357 307.015 416.357C307.015 416.357 288.724 487.424 292.339 491.003C295.953 494.583 308.604 498.162 310.411 496.372C312.218 494.583 328.099 421.13 328.099 421.13L343.159 381.161L357.014 438.43L358.219 499.278C358.219 499.278 373.279 502.857 376.291 500.471C379.303 498.085 379.905 440.219 376.291 419.936C372.677 399.654 376.893 353.123 376.893 353.123L316.653 348.351Z" fill="#300636"/>
<path d="M340.812 220.987C350.793 220.987 358.884 212.975 358.884 203.091C358.884 193.207 350.793 185.194 340.812 185.194C330.831 185.194 322.74 193.207 322.74 203.091C322.74 212.975 330.831 220.987 340.812 220.987Z" fill="#9E616A"/>
<path d="M317.858 246.937C317.858 246.937 323.061 239.259 333.302 229.118C338.724 227.328 348.118 228.371 351.374 229.118C366.434 248.804 367.382 247.496 371.302 258.495C372.319 261.347 372.827 264.088 372.375 266.325C370.568 275.273 376.291 347.754 376.893 350.14C377.496 352.526 381.713 355.509 377.496 355.509C373.279 355.509 309.424 353.123 310.629 351.333C311.834 349.544 317.858 246.937 317.858 246.937Z" fill="#803795"/>
<path opacity="0.1" d="M315.099 350.546L333.219 311.066L324.159 353.054L315.099 350.546Z" fill="black"/>
<path d="M335.344 219.671C337.036 218.424 338.594 217.008 339.993 215.445C341.398 213.868 342.278 211.901 342.512 209.811C342.615 208.769 342.449 207.718 342.032 206.757C341.614 205.795 340.957 204.953 340.123 204.311C338.402 203.106 335.777 203.176 334.348 204.711C335.038 202.501 335.669 199.895 334.271 198.042C332.998 196.356 330.625 196.069 328.575 195.513C324.621 194.423 321.219 191.914 319.032 188.474L322.514 189.187L322.126 186.729L325.011 187.723L325.036 184.3L328.014 185.949C331.659 182.64 336.464 180.867 341.407 181.008C343.901 181.049 346.343 181.713 348.509 182.938C350.678 184.181 352.322 186.159 353.136 188.506C354.668 186.931 357.401 187.053 359.227 188.284C361.053 189.515 362.125 191.575 362.862 193.638C364.32 197.593 364.66 201.867 363.843 206C363.003 210.142 360.75 213.871 357.461 216.562C354.44 218.845 350.844 220.262 347.065 220.657C343.302 221.044 339.502 220.883 335.786 220.18" fill="#2F2E41"/>
<path d="M309.458 373.233C310.057 372.588 310.506 371.82 310.773 370.983C311.04 370.147 311.119 369.263 311.004 368.394C310.889 367.524 310.583 366.69 310.107 365.951C309.631 365.211 308.997 364.584 308.25 364.113L313.214 343.37L302.707 347.171L299.604 366.286C298.888 367.582 298.677 369.092 299.011 370.531C299.345 371.97 300.2 373.238 301.415 374.094C302.63 374.951 304.119 375.336 305.602 375.177C307.084 375.018 308.456 374.327 309.458 373.233Z" fill="#9E616A"/>
<path d="M323.882 246.937H317.858C317.858 246.937 311.231 251.709 311.834 257.078C312.436 262.447 305.207 308.978 305.207 314.944C305.207 320.909 302.798 322.699 302.798 326.278C302.798 329.857 304.003 332.244 302.798 334.033C301.593 335.823 299.183 346.561 299.786 350.737C300.136 353.51 300.136 356.315 299.786 359.088H310.629C310.629 359.088 321.472 322.699 323.882 320.909C324.916 320.128 325.772 319.14 326.394 318.009C327.017 316.879 327.393 315.631 327.496 314.347C327.496 312.557 326.291 312.557 329.303 310.171C332.315 307.785 330.508 297.047 330.508 297.047L334.725 286.309L323.882 246.937Z" fill="#E4E4E4"/>
<path d="M494.292 522.619H163.844C163.734 522.619 163.624 522.598 163.521 522.556C163.419 522.514 163.326 522.453 163.247 522.376C163.169 522.298 163.107 522.206 163.064 522.105C163.022 522.004 163 521.895 163 521.785C163 521.675 163.022 521.567 163.064 521.466C163.107 521.364 163.169 521.272 163.247 521.195C163.326 521.117 163.419 521.056 163.521 521.014C163.624 520.972 163.734 520.951 163.844 520.951H494.292C494.402 520.951 494.512 520.972 494.614 521.014C494.717 521.056 494.81 521.117 494.888 521.195C494.967 521.272 495.029 521.364 495.072 521.466C495.114 521.567 495.136 521.675 495.136 521.785C495.136 521.895 495.114 522.004 495.072 522.105C495.029 522.206 494.967 522.298 494.888 522.376C494.81 522.453 494.717 522.514 494.614 522.556C494.512 522.598 494.402 522.619 494.292 522.619Z" fill="#CACACA"/>
<defs>
<filter id="filter0_i_10_2" x="52" y="245.5" width="409" height="264.5" filterUnits="userSpaceOnUse" color-interpolation-filters="sRGB">
<feFlood flood-opacity="0" result="BackgroundImageFix"/>
<feBlend mode="normal" in="SourceGraphic" in2="BackgroundImageFix" result="shape"/>
<feColorMatrix in="SourceAlpha" type="matrix" values="0 0 0 0 0 0 0 0 0 0 0 0 0 0 0 0 0 0 127 0" result="hardAlpha"/>
<feMorphology radius="10" operator="dilate" in="SourceAlpha" result="effect1_innerShadow_10_2"/>
<feOffset dy="-87"/>
<feGaussianBlur stdDeviation="35"/>
<feComposite in2="hardAlpha" operator="arithmetic" k2="-1" k3="1"/>
<feColorMatrix type="matrix" values="0 0 0 0 0.525 0 0 0 0 0.511875 0 0 0 0 0.511875 0 0 0 0.33 0"/>
<feBlend mode="normal" in2="shape" result="effect1_innerShadow_10_2"/>
</filter>
</defs>
</svg>
